<svg width="42" height="32" viewBox="0 0 42 32" fill="none" xmlns="http://www.w3.org/2000/svg">
<path d="M36.1393 5.03633C36.5144 5.21399 36.7038 5.39854 36.8758 5.77283C36.912 6.04701 36.9093 6.31918 36.9076 6.5954C36.908 6.67895 36.9085 6.7625 36.9089 6.84857C36.9101 7.12889 36.9095 7.40918 36.9089 7.6895C36.9094 7.89032 36.9099 8.09114 36.9106 8.29196C36.9119 8.78104 36.9121 9.2701 36.9117 9.75917C36.9113 10.1567 36.9114 10.5542 36.9119 10.9518C36.9119 11.0083 36.912 11.0649 36.9121 11.1232C36.9122 11.2382 36.9123 11.3531 36.9124 11.4681C36.9136 12.546 36.9131 13.6239 36.9122 14.7018C36.9114 15.6878 36.9124 16.6738 36.9144 17.6599C36.9164 18.6725 36.9172 19.6851 36.9166 20.6976C36.9163 21.2661 36.9165 21.8345 36.918 22.403C36.9193 22.9374 36.9189 23.4719 36.9174 24.0063C36.9171 24.2026 36.9173 24.3989 36.9182 24.5952C36.9192 24.8629 36.9183 25.1305 36.9169 25.3982C36.9176 25.4761 36.9184 25.554 36.9192 25.6342C36.9141 26.0924 36.8575 26.3603 36.5485 26.7222C36.1211 27.0541 35.6767 27.031 35.1573 26.9677C34.7823 26.79 34.5929 26.6055 34.4208 26.2312C34.3847 25.957 34.3874 25.6848 34.3891 25.4086C34.3887 25.325 34.3882 25.2415 34.3878 25.1554C34.3866 24.8751 34.3872 24.5948 34.3878 24.3145C34.3873 24.1137 34.3867 23.9129 34.3861 23.712C34.3848 23.223 34.3846 22.7339 34.385 22.2448C34.3854 21.8473 34.3852 21.4498 34.3848 21.0522C34.3847 20.9957 34.3847 20.9391 34.3846 20.8808C34.3845 20.7658 34.3844 20.6509 34.3842 20.5359C34.3831 19.458 34.3836 18.3801 34.3845 17.3022C34.3853 16.3162 34.3843 15.3302 34.3823 14.3441C34.3803 13.3315 34.3795 12.3189 34.3801 11.3064C34.3803 10.7379 34.3802 10.1695 34.3787 9.60104C34.3774 9.06658 34.3778 8.53214 34.3793 7.99767C34.3796 7.80139 34.3794 7.6051 34.3785 7.40882C34.3774 7.14112 34.3784 6.8735 34.3798 6.6058C34.379 6.5279 34.3783 6.45001 34.3774 6.36976C34.3826 5.91161 34.4391 5.64369 34.7482 5.28183C35.1756 4.94988 35.62 4.97299 36.1393 5.03633Z" fill="#C9D2D2"/>
<path d="M16.4992 5.03633C16.8743 5.21399 17.0636 5.39854 17.2357 5.77283C17.2718 6.04701 17.2692 6.31918 17.2674 6.5954C17.2679 6.67895 17.2683 6.7625 17.2688 6.84857C17.2699 7.12889 17.2694 7.40918 17.2688 7.6895C17.2692 7.89032 17.2698 8.09114 17.2705 8.29196C17.2718 8.78104 17.272 9.2701 17.2715 9.75917C17.2712 10.1567 17.2713 10.5542 17.2717 10.9518C17.2718 11.0083 17.2719 11.0649 17.2719 11.1232C17.2721 11.2382 17.2722 11.3531 17.2723 11.4681C17.2734 12.546 17.273 13.6239 17.272 14.7018C17.2712 15.6878 17.2723 16.6738 17.2743 17.6599C17.2762 18.6725 17.277 19.6851 17.2765 20.6976C17.2762 21.2661 17.2764 21.8345 17.2778 22.403C17.2792 22.9374 17.2788 23.4719 17.2772 24.0063C17.2769 24.2026 17.2772 24.3989 17.278 24.5952C17.2791 24.8629 17.2782 25.1305 17.2767 25.3982C17.2775 25.4761 17.2783 25.554 17.2791 25.6342C17.274 26.0924 17.2174 26.3603 16.9084 26.7222C16.481 27.0541 16.0366 27.031 15.5172 26.9677C15.1421 26.79 14.9528 26.6055 14.7807 26.2312C14.7446 25.957 14.7472 25.6848 14.749 25.4086C14.7485 25.325 14.7481 25.2415 14.7476 25.1554C14.7465 24.8751 14.7471 24.5948 14.7476 24.3145C14.7472 24.1137 14.7466 23.9129 14.7459 23.712C14.7446 23.223 14.7445 22.7339 14.7449 22.2448C14.7452 21.8473 14.7451 21.4498 14.7447 21.0522C14.7446 20.9957 14.7445 20.9391 14.7445 20.8808C14.7444 20.7658 14.7442 20.6509 14.7441 20.5359C14.743 19.458 14.7434 18.3801 14.7444 17.3022C14.7452 16.3162 14.7441 15.3302 14.7422 14.3441C14.7402 13.3315 14.7394 12.3189 14.7399 11.3064C14.7402 10.7379 14.74 10.1695 14.7386 9.60104C14.7373 9.06658 14.7376 8.53214 14.7392 7.99767C14.7395 7.80139 14.7392 7.6051 14.7384 7.40882C14.7373 7.14112 14.7382 6.8735 14.7397 6.6058C14.7389 6.5279 14.7381 6.45001 14.7373 6.36976C14.7424 5.91161 14.799 5.64369 15.108 5.28183C15.5354 4.94988 15.9798 4.97299 16.4992 5.03633Z" fill="#C9D2D2"/>
<path d="M6.67938 5.03633C7.05445 5.21399 7.24379 5.39854 7.41588 5.77283C7.452 6.04701 7.44935 6.31918 7.44761 6.5954C7.44805 6.67895 7.44849 6.7625 7.44895 6.84857C7.45012 7.12889 7.44953 7.40918 7.44895 7.6895C7.44942 7.89032 7.44999 8.09114 7.45065 8.29196C7.45197 8.78104 7.45213 9.2701 7.4517 9.75917C7.45137 10.1567 7.45149 10.5542 7.45192 10.9518C7.45198 11.0083 7.45205 11.0649 7.45211 11.1232C7.45223 11.2382 7.45236 11.3531 7.45249 11.4681C7.45361 12.546 7.45316 13.6239 7.45223 14.7018C7.45141 15.6878 7.45247 16.6738 7.45443 17.6599C7.45642 18.6725 7.45721 19.6851 7.45667 20.6976C7.45638 21.2661 7.45657 21.8345 7.458 22.403C7.45933 22.9374 7.45894 23.4719 7.4574 24.0063C7.4571 24.2026 7.45735 24.3989 7.45821 24.5952C7.45928 24.8629 7.45835 25.1305 7.4569 25.3982C7.45769 25.4761 7.45847 25.554 7.45928 25.6342C7.45417 26.0924 7.39758 26.3603 7.08855 26.7222C6.66117 27.0541 6.21674 27.031 5.69738 26.9677C5.32231 26.79 5.13297 26.6055 4.96088 26.2312C4.92476 25.957 4.92741 25.6848 4.92915 25.4086C4.92871 25.325 4.92827 25.2415 4.92782 25.1554C4.92664 24.8751 4.92723 24.5948 4.92781 24.3145C4.92735 24.1137 4.92678 23.9129 4.92611 23.712C4.92479 23.223 4.92464 22.7339 4.92506 22.2448C4.9254 21.8473 4.92528 21.4498 4.92484 21.0522C4.92478 20.9957 4.92472 20.9391 4.92465 20.8808C4.92453 20.7658 4.9244 20.6509 4.92428 20.5359C4.92315 19.458 4.9236 18.3801 4.92454 17.3022C4.92535 16.3162 4.92429 15.3302 4.92233 14.3441C4.92034 13.3315 4.91955 12.3189 4.92009 11.3064C4.92038 10.7379 4.9202 10.1695 4.91876 9.60104C4.91743 9.06658 4.91782 8.53214 4.91936 7.99767C4.91967 7.80139 4.91941 7.6051 4.91855 7.40882C4.91748 7.14112 4.91841 6.8735 4.91986 6.6058C4.91908 6.5279 4.91829 6.45001 4.91748 6.36976C4.92259 5.91161 4.97918 5.64369 5.28821 5.28183C5.7156 4.94988 6.16002 4.97299 6.67938 5.03633Z" fill="#C9D2D2"/>
<path d="M31.2292 5.03604C31.6058 5.21445 31.7839 5.4024 31.9657 5.77254C31.9968 6.03878 31.9968 6.03878 31.9974 6.34658C31.9978 6.4034 31.9983 6.46021 31.9987 6.51874C31.9999 6.70859 31.9993 6.8984 31.9987 7.08825C31.9992 7.22457 31.9998 7.3609 32.0004 7.49722C32.0019 7.86716 32.0018 8.23709 32.0013 8.60703C32.0011 8.91595 32.0016 9.22486 32.0021 9.53377C32.0032 10.2626 32.0031 10.9914 32.0022 11.7201C32.0012 12.4719 32.0024 13.2235 32.0046 13.9752C32.0064 14.6208 32.0069 15.2664 32.0065 15.912C32.0062 16.2975 32.0064 16.6829 32.0078 17.0684C32.0091 17.4309 32.0087 17.7934 32.0072 18.1559C32.0069 18.2889 32.0071 18.4218 32.008 18.5548C32.0091 18.7365 32.0081 18.9181 32.0067 19.0998C32.0067 19.2014 32.0067 19.303 32.0066 19.4077C31.9462 19.8154 31.7668 20.0755 31.4437 20.3264C31.055 20.4973 30.6627 20.4714 30.2472 20.4207C29.8705 20.2423 29.6924 20.0544 29.5107 19.6842C29.4795 19.418 29.4795 19.418 29.4789 19.1102C29.4785 19.0534 29.4781 18.9966 29.4776 18.938C29.4764 18.7482 29.477 18.5584 29.4776 18.3685C29.4771 18.2322 29.4766 18.0959 29.4759 17.9595C29.4744 17.5896 29.4745 17.2197 29.475 16.8497C29.4752 16.5408 29.4748 16.2319 29.4743 15.923C29.4731 15.1942 29.4732 14.4654 29.4742 13.7366C29.4751 12.9849 29.474 12.2332 29.4718 11.4815C29.4699 10.8359 29.4694 10.1904 29.4699 9.5448C29.4702 9.15931 29.47 8.77383 29.4686 8.38834C29.4673 8.02582 29.4676 7.66333 29.4692 7.30082C29.4695 7.16787 29.4692 7.03493 29.4683 6.90199C29.4673 6.72028 29.4682 6.53868 29.4697 6.35698C29.4697 6.25537 29.4697 6.15376 29.4697 6.04908C29.5301 5.64132 29.7096 5.38131 30.0327 5.13034C30.4213 4.95947 30.8137 4.98537 31.2292 5.03604Z" fill="#C9D2D2"/>
<path d="M26.3195 5.03604C26.6961 5.21445 26.8743 5.4024 27.056 5.77254C27.0871 6.03878 27.0871 6.03878 27.0877 6.34658C27.0882 6.4034 27.0886 6.46021 27.0891 6.51874C27.0902 6.70859 27.0897 6.8984 27.0891 7.08825C27.0895 7.22457 27.0901 7.3609 27.0908 7.49722C27.0922 7.86716 27.0921 8.23709 27.0917 8.60703C27.0914 8.91595 27.0919 9.22486 27.0924 9.53377C27.0936 10.2626 27.0934 10.9914 27.0925 11.7201C27.0916 12.4719 27.0927 13.2235 27.0949 13.9752C27.0967 14.6208 27.0973 15.2664 27.0968 15.912C27.0965 16.2975 27.0967 16.6829 27.0981 17.0684C27.0994 17.4309 27.0991 17.7934 27.0975 18.1559C27.0972 18.2889 27.0975 18.4218 27.0983 18.5548C27.0994 18.7365 27.0985 18.9181 27.097 19.0998C27.097 19.2014 27.097 19.303 27.097 19.4077C27.0366 19.8154 26.8571 20.0755 26.534 20.3264C26.1453 20.4973 25.753 20.4714 25.3375 20.4207C24.9609 20.2423 24.7827 20.0544 24.601 19.6842C24.5699 19.418 24.5699 19.418 24.5693 19.1102C24.5688 19.0534 24.5684 18.9966 24.5679 18.938C24.5668 18.7482 24.5674 18.5584 24.5679 18.3685C24.5675 18.2322 24.5669 18.0959 24.5662 17.9595C24.5648 17.5896 24.5649 17.2197 24.5653 16.8497C24.5656 16.5408 24.5651 16.2319 24.5646 15.923C24.5634 15.1942 24.5636 14.4654 24.5645 13.7366C24.5654 12.9849 24.5643 12.2332 24.5621 11.4815C24.5603 10.8359 24.5597 10.1904 24.5602 9.5448C24.5605 9.15931 24.5603 8.77383 24.5589 8.38834C24.5576 8.02582 24.5579 7.66333 24.5595 7.30082C24.5598 7.16787 24.5595 7.03493 24.5587 6.90199C24.5576 6.72028 24.5585 6.53868 24.56 6.35698C24.56 6.25537 24.56 6.15376 24.56 6.04908C24.6204 5.64132 24.7999 5.38131 25.123 5.13034C25.5117 4.95947 25.904 4.98537 26.3195 5.03604Z" fill="#C9D2D2"/>
<path d="M21.4093 5.03604C21.786 5.21445 21.9641 5.4024 22.1459 5.77254C22.177 6.03878 22.177 6.03878 22.1776 6.34658C22.178 6.4034 22.1785 6.46021 22.1789 6.51874C22.1801 6.70859 22.1795 6.8984 22.1789 7.08825C22.1794 7.22457 22.18 7.3609 22.1806 7.49722C22.1821 7.86716 22.182 8.23709 22.1815 8.60703C22.1813 8.91595 22.1818 9.22486 22.1823 9.53377C22.1834 10.2626 22.1833 10.9914 22.1824 11.7201C22.1814 12.4719 22.1826 13.2235 22.1848 13.9752C22.1866 14.6208 22.1871 15.2664 22.1866 15.912C22.1864 16.2975 22.1866 16.6829 22.188 17.0684C22.1892 17.4309 22.1889 17.7934 22.1874 18.1559C22.1871 18.2889 22.1873 18.4218 22.1882 18.5548C22.1893 18.7365 22.1883 18.9181 22.1869 19.0998C22.1868 19.2014 22.1868 19.303 22.1868 19.4077C22.1264 19.8154 21.947 20.0755 21.6238 20.3264C21.2352 20.4973 20.8429 20.4714 20.4273 20.4207C20.0507 20.2423 19.8726 20.0544 19.6908 19.6842C19.6597 19.418 19.6597 19.418 19.6591 19.1102C19.6587 19.0534 19.6582 18.9966 19.6578 18.938C19.6566 18.7482 19.6572 18.5584 19.6578 18.3685C19.6573 18.2322 19.6567 18.0959 19.6561 17.9595C19.6546 17.5896 19.6547 17.2197 19.6552 16.8497C19.6554 16.5408 19.6549 16.2319 19.6544 15.923C19.6533 15.1942 19.6534 14.4654 19.6543 13.7366C19.6553 12.9849 19.6541 12.2332 19.6519 11.4815C19.6501 10.8359 19.6496 10.1904 19.6501 9.5448C19.6503 9.15931 19.6501 8.77383 19.6487 8.38834C19.6475 8.02582 19.6478 7.66333 19.6493 7.30082C19.6496 7.16787 19.6494 7.03493 19.6485 6.90199C19.6474 6.72028 19.6484 6.53868 19.6498 6.35698C19.6498 6.25537 19.6499 6.15376 19.6499 6.04908C19.7103 5.64132 19.8897 5.38131 20.2129 5.13034C20.6015 4.95947 20.9938 4.98537 21.4093 5.03604Z" fill="#C9D2D2"/>
<path d="M11.589 5.03604C11.9657 5.21445 12.1438 5.4024 12.3255 5.77254C12.3567 6.03878 12.3567 6.03878 12.3573 6.34658C12.3577 6.4034 12.3581 6.46021 12.3586 6.51874C12.3598 6.70859 12.3592 6.8984 12.3586 7.08825C12.3591 7.22457 12.3596 7.3609 12.3603 7.49722C12.3618 7.86716 12.3617 8.23709 12.3612 8.60703C12.361 8.91595 12.3615 9.22486 12.3619 9.53377C12.3631 10.2626 12.363 10.9914 12.362 11.7201C12.3611 12.4719 12.3623 13.2235 12.3644 13.9752C12.3663 14.6208 12.3668 15.2664 12.3663 15.912C12.366 16.2975 12.3662 16.6829 12.3677 17.0684C12.3689 17.4309 12.3686 17.7934 12.3671 18.1559C12.3668 18.2889 12.367 18.4218 12.3679 18.5548C12.3689 18.7365 12.368 18.9181 12.3666 19.0998C12.3665 19.2014 12.3665 19.303 12.3665 19.4077C12.3061 19.8154 12.1267 20.0755 11.8035 20.3264C11.4149 20.4973 11.0225 20.4714 10.607 20.4207C10.2304 20.2423 10.0523 20.0544 9.87053 19.6842C9.83941 19.418 9.83941 19.418 9.83881 19.1102C9.83837 19.0534 9.83792 18.9966 9.83747 18.938C9.8363 18.7482 9.83688 18.5584 9.83747 18.3685C9.837 18.2322 9.83643 18.0959 9.83576 17.9595C9.8343 17.5896 9.83439 17.2197 9.83486 16.8497C9.83511 16.5408 9.83461 16.2319 9.83412 15.923C9.83297 15.1942 9.8331 14.4654 9.83403 13.7366C9.83497 12.9849 9.83382 12.2332 9.83162 11.4815C9.82981 10.8359 9.82927 10.1904 9.82975 9.5448C9.83002 9.15931 9.82983 8.77383 9.82842 8.38834C9.82715 8.02582 9.82748 7.66333 9.82902 7.30082C9.82932 7.16787 9.82906 7.03493 9.82821 6.90199C9.82713 6.72028 9.82807 6.53868 9.82952 6.35698C9.82953 6.25537 9.82955 6.15376 9.82957 6.04908C9.88997 5.64132 10.0694 5.38131 10.3925 5.13034C10.7812 4.95947 11.1735 4.98537 11.589 5.03604Z" fill="#C9D2D2"/>
<path d="M34.2823 0.0112187C34.3704 0.0103762 34.3704 0.0103762 34.4603 0.00951674C34.6538 0.0080235 34.8473 0.00833571 35.0408 0.00880124C35.1761 0.00842772 35.3113 0.00799348 35.4466 0.00750137C35.73 0.00677074 36.0134 0.00696837 36.2968 0.00778232C36.6585 0.00872017 37.02 0.00707219 37.3817 0.00467943C37.6611 0.00317119 37.9405 0.00320189 38.22 0.00366777C38.3532 0.00368025 38.4864 0.00319026 38.6197 0.00217092C39.9571 -0.0066169 39.9571 -0.0066169 40.5582 0.371617C40.6168 0.408064 40.6754 0.444511 40.7358 0.482062C41.3415 0.877397 41.7553 1.48018 41.9494 2.17195C41.9648 2.37531 41.9719 2.57937 41.9731 2.78331C41.9737 2.84245 41.9742 2.9016 41.9748 2.96253C41.9763 3.15677 41.9767 3.35098 41.9768 3.54522C41.9774 3.68095 41.9779 3.81667 41.9785 3.9524C41.9795 4.23635 41.9798 4.52029 41.9797 4.80425C41.9797 5.16748 41.9819 5.53066 41.9847 5.89388C41.9865 6.17399 41.9869 6.4541 41.9868 6.73422C41.987 6.86812 41.9877 7.00202 41.989 7.13591C41.9906 7.32335 41.9901 7.51067 41.9891 7.6981C41.9893 7.80456 41.9896 7.91103 41.9898 8.02071C41.9315 8.43661 41.7568 8.69581 41.4273 8.95166C41.0387 9.12253 40.6464 9.09663 40.2309 9.04596C39.8538 8.86734 39.6778 8.67895 39.4943 8.30946C39.4623 8.05686 39.4623 8.05686 39.4603 7.77111C39.4589 7.6638 39.4576 7.55649 39.4562 7.44593C39.4559 7.32951 39.4556 7.21308 39.4553 7.09666C39.4542 6.97674 39.4529 6.85682 39.4515 6.7369C39.4481 6.42193 39.446 6.10696 39.4443 5.79197C39.4414 5.28725 39.4364 4.78255 39.4314 4.27785C39.4298 4.10165 39.4288 3.92545 39.428 3.74924C39.4271 3.64245 39.4263 3.53565 39.4254 3.42563C39.4249 3.33146 39.4244 3.23729 39.4238 3.14026C39.4226 2.90207 39.4226 2.90207 39.3307 2.66295C39.0589 2.57237 38.8556 2.57038 38.5693 2.56951C38.4095 2.56865 38.4095 2.56865 38.2465 2.56777C38.1896 2.56762 38.1326 2.56747 38.074 2.56732C37.8954 2.56673 37.7169 2.56545 37.5383 2.56393C37.0306 2.55965 36.523 2.55572 36.0153 2.55445C35.7046 2.55362 35.3939 2.55122 35.0832 2.54779C34.9651 2.54679 34.847 2.54637 34.7288 2.54655C34.5631 2.54674 34.3975 2.54474 34.2318 2.54266C34.1377 2.54218 34.0436 2.5417 33.9466 2.54121C33.5486 2.47763 33.2872 2.29303 33.042 1.97728C32.8711 1.58862 32.897 1.19629 32.9477 0.780784C33.2375 0.16899 33.6285 0.0139484 34.2823 0.0112187Z" fill="#C9D2D2"/>
<path d="M2.78966 0.0207928C2.87838 0.0199683 2.87838 0.0199683 2.96889 0.0191271C3.16312 0.0175807 3.35733 0.0172532 3.55157 0.0170768C3.6873 0.0165504 3.82303 0.0159998 3.95875 0.015426C4.24271 0.0144481 4.52665 0.0141426 4.8106 0.0142398C5.17384 0.0142564 5.53702 0.012019 5.90024 0.00920339C6.18035 0.00738107 6.46046 0.00705173 6.74058 0.00713823C6.87448 0.00694555 7.00838 0.00622418 7.14227 0.00495617C7.32971 0.00334671 7.51703 0.00382514 7.70447 0.00480976C7.81093 0.00457653 7.91739 0.0043433 8.02708 0.00410301C8.44298 0.0623874 8.70217 0.237162 8.95802 0.566575C9.12889 0.955233 9.103 1.34756 9.05232 1.76307C8.8737 2.14015 8.68531 2.31611 8.31582 2.49957C8.06323 2.53165 8.06323 2.53165 7.77747 2.53365C7.61651 2.53569 7.61651 2.53569 7.45229 2.53776C7.33587 2.53804 7.21945 2.53831 7.10302 2.53857C6.9831 2.53974 6.86318 2.54103 6.74327 2.54243C6.42829 2.54585 6.11332 2.5479 5.79833 2.54959C5.29361 2.55253 4.78891 2.55752 4.2842 2.56256C4.108 2.56412 3.9318 2.56508 3.7556 2.56595C3.59541 2.56721 3.59541 2.56721 3.43198 2.5685C3.29073 2.56929 3.29073 2.56929 3.14662 2.57011C2.90842 2.57127 2.90842 2.57127 2.66931 2.66324C2.57873 2.93497 2.57673 3.13835 2.57586 3.42461C2.57529 3.53114 2.57471 3.63767 2.57412 3.74742C2.57397 3.80435 2.57382 3.86128 2.57367 3.91993C2.57308 4.0985 2.5718 4.27705 2.57029 4.45561C2.566 4.96328 2.56207 5.47094 2.5608 5.97863C2.55997 6.28933 2.55757 6.59999 2.55415 6.91068C2.55314 7.02881 2.55272 7.14695 2.5529 7.26509C2.55309 7.43076 2.5511 7.59644 2.54901 7.7621C2.54853 7.85622 2.54805 7.95033 2.54756 8.0473C2.48398 8.44532 2.29939 8.7067 1.98363 8.95194C1.59497 9.12281 1.20265 9.09691 0.787134 9.04624C0.410661 8.86791 0.231505 8.68025 0.0506316 8.30974C0.0189063 8.03249 0.0189063 8.03249 0.0175665 7.71157C0.0170049 7.65283 0.0164432 7.59409 0.0158646 7.53358C0.0143713 7.34007 0.0146835 7.14661 0.0151491 6.9531C0.0147755 6.81784 0.0143413 6.68259 0.0138492 6.54733C0.0131186 6.26392 0.0133162 5.98052 0.0141301 5.69711C0.015068 5.33545 0.0134199 4.97386 0.0110272 4.61222C0.00951892 4.33279 0.00954986 4.05338 0.0100157 3.77395C0.0100282 3.64071 0.00953792 3.50747 0.00851857 3.37424C-0.000269266 2.03678 -0.000269105 2.03678 0.377966 1.43574C0.414413 1.37711 0.450859 1.31848 0.48841 1.25808C1.01896 0.445208 1.83342 0.0263964 2.78966 0.0207928Z" fill="#C9D2D2"/>
<path d="M41.2129 22.9579C41.5893 23.1362 41.7685 23.3239 41.9494 23.6944C41.9811 23.9717 41.9811 23.9717 41.9824 24.2926C41.983 24.3513 41.9835 24.4101 41.9841 24.4706C41.9856 24.6641 41.9853 24.8575 41.9848 25.0511C41.9852 25.1863 41.9856 25.3216 41.9861 25.4568C41.9869 25.7402 41.9867 26.0236 41.9859 26.3071C41.9849 26.6687 41.9866 27.0303 41.989 27.3919C41.9905 27.6714 41.9904 27.9508 41.99 28.2302C41.99 28.3634 41.9904 28.4967 41.9915 28.6299C42.0003 29.9674 42.0003 29.9674 41.622 30.5684C41.5856 30.627 41.5491 30.6857 41.5116 30.7461C41.0911 31.3902 40.4783 31.7794 39.7398 31.9596C39.5359 31.9747 39.3312 31.9821 39.1267 31.9834C39.0392 31.9842 39.0392 31.9842 38.9499 31.985C38.7587 31.9866 38.5676 31.9869 38.3765 31.9871C38.2427 31.9876 38.1089 31.9882 37.9752 31.9887C37.6956 31.9897 37.416 31.99 37.1363 31.9899C36.7787 31.9899 36.4211 31.9921 36.0635 31.995C35.7875 31.9968 35.5116 31.9971 35.2356 31.997C35.1037 31.9972 34.9719 31.9979 34.8401 31.9992C34.6556 32.0008 34.4712 32.0003 34.2867 31.9993C34.1296 31.9997 34.1296 31.9997 33.9693 32.0001C33.5558 31.9414 33.2963 31.7651 33.042 31.4376C32.8711 31.0489 32.897 30.6566 32.9477 30.2411C33.1263 29.864 33.3147 29.688 33.6842 29.5046C33.9368 29.4725 33.9368 29.4725 34.2225 29.4705C34.3298 29.4691 34.4371 29.4678 34.5477 29.4664C34.6641 29.4661 34.7805 29.4658 34.897 29.4656C35.0169 29.4644 35.1368 29.4631 35.2567 29.4617C35.5717 29.4583 35.8867 29.4563 36.2017 29.4546C36.7064 29.4516 37.2111 29.4466 37.7158 29.4416C37.892 29.44 38.0682 29.4391 38.2444 29.4382C38.4046 29.4369 38.4046 29.4369 38.568 29.4357C38.7093 29.4349 38.7093 29.4349 38.8534 29.4341C39.0916 29.4329 39.0916 29.4329 39.3307 29.3409C39.4213 29.0692 39.4233 28.8658 39.4241 28.5795C39.4247 28.473 39.4253 28.3665 39.4259 28.2567C39.426 28.1998 39.4262 28.1429 39.4263 28.0842C39.4269 27.9057 39.4282 27.7271 39.4297 27.5485C39.434 27.0409 39.4379 26.5332 39.4392 26.0255C39.44 25.7148 39.4424 25.4042 39.4458 25.0935C39.4468 24.9753 39.4473 24.8572 39.4471 24.7391C39.4469 24.5734 39.4489 24.4077 39.451 24.2421C39.4517 24.1009 39.4517 24.1009 39.4524 23.9569C39.516 23.5588 39.7006 23.2975 40.0164 23.0522C40.405 22.8813 40.7973 22.9072 41.2129 22.9579Z" fill="#C9D2D2"/>
<path d="M1.76893 22.9579C2.14602 23.1365 2.32197 23.3249 2.50543 23.6944C2.53751 23.947 2.53751 23.947 2.53952 24.2328C2.54155 24.3937 2.54155 24.3937 2.54363 24.5579C2.54391 24.6744 2.54418 24.7908 2.54443 24.9072C2.5456 25.0271 2.54689 25.1471 2.5483 25.267C2.55172 25.5819 2.55376 25.8969 2.55546 26.2119C2.55839 26.7166 2.56338 27.2213 2.56843 27.726C2.56999 27.9022 2.57095 28.0784 2.57182 28.2546C2.57266 28.3614 2.5735 28.4682 2.57436 28.5782C2.57516 28.7195 2.57516 28.7195 2.57597 28.8636C2.57713 29.1018 2.57713 29.1018 2.6691 29.3409C2.94084 29.4315 3.14422 29.4335 3.43048 29.4344C3.53701 29.4349 3.64353 29.4355 3.75329 29.4361C3.81022 29.4363 3.86715 29.4364 3.9258 29.4366C4.10437 29.4371 4.28292 29.4384 4.46148 29.4399C4.96915 29.4442 5.47681 29.4482 5.9845 29.4494C6.29521 29.4503 6.60587 29.4527 6.91655 29.4561C7.03469 29.4571 7.15282 29.4575 7.27096 29.4573C7.43664 29.4571 7.60231 29.4591 7.76798 29.4612C7.86209 29.4617 7.95621 29.4622 8.05318 29.4627C8.4512 29.5262 8.71258 29.7108 8.95782 30.0266C9.12869 30.4153 9.10279 30.8076 9.05212 31.2231C8.87378 31.5996 8.68603 31.7785 8.31562 31.9596C8.04147 31.9908 8.04147 31.9908 7.72496 31.9914C7.66702 31.9918 7.60908 31.9922 7.54938 31.9927C7.35853 31.9937 7.16773 31.993 6.97687 31.9922C6.84345 31.9924 6.71003 31.9926 6.57661 31.9929C6.29705 31.9933 6.0175 31.9927 5.73794 31.9916C5.38125 31.9902 5.0246 31.991 4.66791 31.9925C4.39228 31.9934 4.11665 31.9931 3.84101 31.9924C3.7096 31.9923 3.57819 31.9925 3.44679 31.9931C2.39777 31.9966 1.57353 31.9092 0.786929 31.1413C0.282387 30.5339 0.031339 30.0203 0.0266523 29.2206C0.0261026 29.1614 0.0255529 29.1023 0.0249865 29.0413C0.0234402 28.8471 0.0231126 28.6529 0.0229362 28.4587C0.0224098 28.3229 0.0218592 28.1872 0.0212854 28.0515C0.0203075 27.7675 0.020002 27.4836 0.0200992 27.1996C0.0201158 26.8364 0.0178784 26.4732 0.0150628 26.11C0.0132405 25.8299 0.0129111 25.5498 0.0129976 25.2697C0.0128049 25.1358 0.0120836 25.0019 0.0108155 24.868C0.00920608 24.6805 0.00968451 24.4932 0.0106691 24.3058C0.0104359 24.1993 0.0102027 24.0928 0.00996238 23.9832C0.0682469 23.5673 0.243022 23.3081 0.572436 23.0522C0.961095 22.8813 1.35342 22.9072 1.76893 22.9579Z" fill="#C9D2D2"/>
<path d="M31.2293 23.121C31.6064 23.2996 31.7824 23.488 31.9658 23.8575C32.0164 24.2498 32.0037 24.6437 32.0016 25.039C32.004 25.1998 32.004 25.1998 32.0065 25.3639C32.0065 25.4676 32.0064 25.5712 32.0064 25.678C32.0066 25.8193 32.0066 25.8193 32.0068 25.9636C31.9452 26.3648 31.7619 26.6258 31.4438 26.8729C31.0551 27.0437 30.6628 27.0178 30.2473 26.9672C29.8702 26.7885 29.6942 26.6002 29.5108 26.2307C29.4602 25.8384 29.4728 25.4444 29.475 25.0492C29.4733 24.942 29.4717 24.8347 29.47 24.7243C29.4701 24.6206 29.4701 24.517 29.4702 24.4102C29.47 24.316 29.4699 24.2217 29.4697 24.1246C29.5314 23.7233 29.7147 23.4624 30.0328 23.2153C30.4215 23.0444 30.8138 23.0703 31.2293 23.121Z" fill="#C9D2D2"/>
<path d="M26.3191 23.121C26.6962 23.2996 26.8722 23.488 27.0556 23.8575C27.1062 24.2498 27.0936 24.6437 27.0914 25.039C27.0939 25.1998 27.0939 25.1998 27.0964 25.3639C27.0963 25.4676 27.0963 25.5712 27.0962 25.678C27.0965 25.8193 27.0965 25.8193 27.0967 25.9636C27.035 26.3648 26.8517 26.6258 26.5336 26.8729C26.145 27.0437 25.7526 27.0178 25.3371 26.9672C24.96 26.7885 24.7841 26.6002 24.6006 26.2307C24.5501 25.8384 24.5627 25.4444 24.5648 25.0492C24.5632 24.942 24.5616 24.8347 24.5599 24.7243C24.5599 24.6206 24.56 24.517 24.56 24.4102C24.5599 24.316 24.5597 24.2217 24.5596 24.1246C24.6212 23.7233 24.8046 23.4624 25.1226 23.2153C25.5113 23.0444 25.9036 23.0703 26.3191 23.121Z" fill="#C9D2D2"/>
<path d="M21.409 23.121C21.7861 23.2996 21.962 23.488 22.1455 23.8575C22.196 24.2498 22.1834 24.6437 22.1813 25.039C22.1837 25.1998 22.1837 25.1998 22.1862 25.3639C22.1862 25.4676 22.1861 25.5712 22.1861 25.678C22.1863 25.8193 22.1863 25.8193 22.1865 25.9636C22.1249 26.3648 21.9416 26.6258 21.6235 26.8729C21.2348 27.0437 20.8425 27.0178 20.427 26.9672C20.0499 26.7885 19.8739 26.6002 19.6905 26.2307C19.6399 25.8384 19.6525 25.4444 19.6547 25.0492C19.653 24.942 19.6514 24.8347 19.6497 24.7243C19.6498 24.6206 19.6498 24.517 19.6499 24.4102C19.6497 24.316 19.6496 24.2217 19.6494 24.1246C19.7111 23.7233 19.8944 23.4624 20.2125 23.2153C20.6011 23.0444 20.9935 23.0703 21.409 23.121Z" fill="#C9D2D2"/>
<path d="M11.5892 23.121C11.9663 23.2996 12.1422 23.488 12.3257 23.8575C12.3762 24.2498 12.3636 24.6437 12.3615 25.039C12.3639 25.1998 12.3639 25.1998 12.3664 25.3639C12.3664 25.4676 12.3663 25.5712 12.3663 25.678C12.3665 25.8193 12.3665 25.8193 12.3667 25.9636C12.305 26.3648 12.1217 26.6258 11.8036 26.8729C11.415 27.0437 11.0227 27.0178 10.6071 26.9672C10.23 26.7885 10.0541 26.6002 9.87065 26.2307C9.82007 25.8384 9.83271 25.4444 9.83484 25.0492C9.83321 24.942 9.83157 24.8347 9.82989 24.7243C9.82994 24.6206 9.83 24.517 9.83005 24.4102C9.8299 24.316 9.82975 24.2217 9.82959 24.1246C9.89127 23.7233 10.0746 23.4624 10.3927 23.2153C10.7813 23.0444 11.1736 23.0703 11.5892 23.121Z" fill="#C9D2D2"/>
</svg>
