<svg width="20" height="20" viewBox="0 0 20 20" fill="none" xmlns="http://www.w3.org/2000/svg">
<path d="M12.5 3.125C12.5823 3.12452 12.6641 3.14077 12.7402 3.17188C12.8162 3.20297 12.8851 3.24883 12.9434 3.30664L14.6309 5H18.125C18.2908 5 18.4502 5.06542 18.5674 5.18262C18.6846 5.29982 18.75 5.45925 18.75 5.625V15.625C18.75 15.7908 18.6846 15.9502 18.5674 16.0674C18.4502 16.1846 18.2908 16.25 18.125 16.25H1.875C1.70924 16.25 1.54983 16.1846 1.43262 16.0674C1.31542 15.9502 1.25 15.7908 1.25 15.625V5.625C1.25001 5.45925 1.31541 5.29982 1.43262 5.18262C1.54983 5.06542 1.70925 5 1.875 5H5.36914L7.05664 3.30664C7.11493 3.24883 7.18379 3.20297 7.25977 3.17188C7.33591 3.14077 7.41775 3.12452 7.5 3.125H12.5ZM6.06836 6.06836C6.00998 6.12626 5.94135 6.173 5.86523 6.2041C5.78909 6.2352 5.70725 6.25048 5.625 6.25H2.5V15H17.5V6.25H14.375C14.2927 6.25048 14.2109 6.2352 14.1348 6.2041C14.0587 6.173 13.99 6.12626 13.9316 6.06836L12.2441 4.375H7.75586L6.06836 6.06836ZM9.26855 6.32227C9.99595 6.1776 10.7504 6.25134 11.4355 6.53516C12.1206 6.819 12.7062 7.3004 13.1182 7.91699C13.5301 8.5336 13.75 9.25846 13.75 10C13.75 10.9946 13.3546 11.9481 12.6514 12.6514C11.9481 13.3546 10.9946 13.75 10 13.75C9.25845 13.75 8.53361 13.5301 7.91699 13.1182C7.3004 12.7062 6.819 12.1206 6.53516 11.4355C6.25134 10.7503 6.17759 9.99596 6.32227 9.26855C6.46696 8.54113 6.82419 7.87308 7.34863 7.34863C7.87308 6.82419 8.54113 6.46696 9.26855 6.32227ZM10 7.5C9.5057 7.5 9.02237 7.64636 8.61133 7.9209C8.20031 8.19553 7.87967 8.5863 7.69043 9.04297C7.50127 9.49964 7.45151 10.0025 7.54785 10.4873C7.64431 10.9723 7.8828 11.4179 8.23242 11.7676C8.58205 12.1172 9.02774 12.3557 9.5127 12.4521C9.99751 12.5485 10.5004 12.4987 10.957 12.3096C11.4137 12.1203 11.8045 11.7997 12.0791 11.3887C12.3536 10.9776 12.5 10.4943 12.5 10C12.5 9.33697 12.2364 8.70126 11.7676 8.23242C11.2987 7.76359 10.663 7.5 10 7.5Z" fill="#008184"/>
</svg>
