<svg width="12" height="15" viewBox="0 0 12 15" fill="none" xmlns="http://www.w3.org/2000/svg">
<path d="M6.4375 3.04199C6.58663 3.04306 6.72968 3.10143 6.83691 3.20508L11.3369 7.70508C11.4405 7.81233 11.4989 7.95536 11.5 8.10449V13.7295C11.4996 13.8785 11.4404 14.0216 11.335 14.127C11.2296 14.2323 11.0866 14.2916 10.9375 14.292H3.0625C2.91345 14.2916 2.77044 14.2323 2.66504 14.127C2.55964 14.0216 2.50043 13.8785 2.5 13.7295V3.60449C2.50043 3.45544 2.55964 3.31243 2.66504 3.20703C2.77044 3.10164 2.91345 3.04242 3.0625 3.04199H6.4375ZM3.625 4.16699V13.167H10.375V8.65039L6.4375 8.66699C6.28807 8.66741 6.14449 8.60882 6.03809 8.50391C5.93446 8.39666 5.87609 8.25362 5.875 8.10449V4.16699H3.625ZM4.75 0.791992C4.89918 0.791992 5.04197 0.851542 5.14746 0.957031C5.25295 1.06252 5.3125 1.20531 5.3125 1.35449C5.3125 1.50368 5.25295 1.64646 5.14746 1.75195C5.04197 1.85744 4.89918 1.91699 4.75 1.91699H1.375V11.4795C1.375 11.6287 1.31545 11.7715 1.20996 11.877C1.10447 11.9824 0.961684 12.042 0.8125 12.042C0.663316 12.042 0.520528 11.9824 0.415039 11.877C0.30955 11.7715 0.25 11.6287 0.25 11.4795V1.35449C0.25 1.20531 0.30955 1.06252 0.415039 0.957031C0.520528 0.851542 0.663316 0.791992 0.8125 0.791992H4.75ZM7 7.54199L9.56543 7.52539L7 4.95996V7.54199Z" fill="#2C353A"/>
</svg>
