<svg xmlns="http://www.w3.org/2000/svg" width="15" height="13" viewBox="0 0 15 13" fill="none">
  <path d="M9.56582 0.324036C9.7119 0.324126 9.85825 0.380404 9.95937 0.487122L13.9359 4.46466C14.1552 4.68401 14.1552 5.04413 13.9359 5.26349L7.17519 12.0242C7.07391 12.1255 6.92692 12.1873 6.78066 12.1873H2.8041C2.65225 12.1873 2.5115 12.1255 2.40468 12.0242L0.413473 10.033C0.194216 9.81369 0.194198 9.4594 0.413473 9.24005L9.1664 0.487122C9.27326 0.380489 9.41411 0.324036 9.56582 0.324036ZM12.4154 11.0623C12.7263 11.0623 12.9778 11.3143 12.9779 11.6248C12.9779 11.9355 12.7263 12.1873 12.4154 12.1873H9.60293C9.29208 12.1872 9.04043 11.9354 9.04043 11.6248C9.04052 11.3143 9.29214 11.0624 9.60293 11.0623H12.4154ZM1.60586 9.63361L3.03457 11.0623H6.54433L10.7582 6.85529L7.57461 3.67169L1.60586 9.63361ZM8.36757 2.87286L11.5512 6.05646L12.7436 4.86407L9.56582 1.68048L8.36757 2.87286Z" fill="#2C353A"/>
</svg>