<svg xmlns="http://www.w3.org/2000/svg" width="19" height="19" viewBox="0 0 19 19" fill="none">
  <path d="M18.75 9.50003C18.75 11.8207 17.8281 14.0463 16.1872 15.6872C14.5462 17.3282 12.3206 18.25 10 18.25C9.83424 18.25 9.67527 18.1842 9.55806 18.067C9.44085 17.9498 9.375 17.7908 9.375 17.625C9.375 17.4593 9.44085 17.3003 9.55806 17.1831C9.67527 17.0659 9.83424 17 10 17C11.715 16.9997 13.3781 16.4116 14.7121 15.3337C16.0461 14.2558 16.9704 12.7533 17.3309 11.0766C17.6914 9.39987 17.4664 7.65025 16.6933 6.11933C15.9203 4.58842 14.6459 3.36869 13.0825 2.66346C11.5192 1.95823 9.76141 1.81009 8.1021 2.24374C6.4428 2.67738 4.98224 3.66662 3.96386 5.04656C2.94549 6.42651 2.43081 8.11379 2.50563 9.82719C2.58044 11.5406 3.24022 13.1766 4.375 14.4625V11.375C4.375 11.2093 4.44085 11.0503 4.55806 10.9331C4.67527 10.8159 4.83424 10.75 5 10.75C5.16576 10.75 5.32473 10.8159 5.44194 10.9331C5.55915 11.0503 5.625 11.2093 5.625 11.375V15.75C5.625 15.9158 5.55915 16.0748 5.44194 16.192C5.32473 16.3092 5.16576 16.375 5 16.375H0.625C0.45924 16.375 0.300269 16.3092 0.183058 16.192C0.065848 16.0748 0 15.9158 0 15.75C0 15.5843 0.065848 15.4253 0.183058 15.3081C0.300269 15.1909 0.45924 15.125 0.625 15.125H3.3C2.39507 14.0477 1.76327 12.768 1.45819 11.3945C1.1531 10.021 1.18372 8.59423 1.54746 7.2351C1.9112 5.87596 2.59732 4.62458 3.54764 3.58707C4.49797 2.54955 5.68447 1.7565 7.00654 1.27517C8.32862 0.793831 9.74726 0.638403 11.1422 0.822063C12.5371 1.00572 13.8672 1.52305 15.0196 2.33019C16.172 3.13732 17.1128 4.21046 17.7622 5.45859C18.4116 6.70673 18.7505 8.09306 18.75 9.50003Z" fill="#2C353A"/>
</svg>