<svg xmlns="http://www.w3.org/2000/svg" width="13" height="14" viewBox="0 0 13 14" fill="none">
  <path d="M12.8551 12.4783L9.35509 8.97833C10.1664 7.98493 10.5649 6.71777 10.4682 5.43885C10.3715 4.15992 9.78712 2.96705 8.83576 2.10687C7.88441 1.24669 6.63888 0.784994 5.35671 0.817241C4.07455 0.849487 2.8538 1.37321 1.94689 2.28013C1.03998 3.18704 0.51625 4.40778 0.484004 5.68995C0.451758 6.97212 0.913456 8.21764 1.77363 9.169C2.63381 10.1204 3.82669 10.7048 5.10561 10.8014C6.38453 10.8981 7.6517 10.4996 8.64509 9.68833L12.1451 13.1883C12.1916 13.2352 12.2469 13.2724 12.3078 13.2978C12.3687 13.3232 12.4341 13.3362 12.5001 13.3362C12.5661 13.3362 12.6314 13.3232 12.6924 13.2978C12.7533 13.2724 12.8086 13.2352 12.8551 13.1883C12.902 13.1418 12.9392 13.0865 12.9645 13.0256C12.9899 12.9647 13.003 12.8993 13.003 12.8333C13.003 12.7673 12.9899 12.702 12.9645 12.641C12.9392 12.5801 12.902 12.5248 12.8551 12.4783ZM5.50009 9.83333C4.70896 9.83333 3.93561 9.59873 3.27781 9.1592C2.62001 8.71968 2.10732 8.09496 1.80457 7.36406C1.50182 6.63316 1.42261 5.82889 1.57695 5.05297C1.73129 4.27704 2.11225 3.56431 2.67166 3.0049C3.23107 2.44549 3.9438 2.06453 4.71973 1.91019C5.49565 1.75584 6.29992 1.83506 7.03082 2.13781C7.76173 2.44056 8.38644 2.95325 8.82597 3.61105C9.26549 4.26884 9.50009 5.0422 9.50009 5.83333C9.50009 6.89419 9.07866 7.91161 8.32852 8.66175C7.57837 9.4119 6.56096 9.83333 5.50009 9.83333Z" fill="#5D6A6B"/>
</svg>