<svg width="14" height="15" viewBox="0 0 14 15" fill="none" xmlns="http://www.w3.org/2000/svg">
<path d="M5.3125 0.916992C5.46168 0.916992 5.60447 0.976542 5.70996 1.08203C5.81545 1.18752 5.875 1.33031 5.875 1.47949C5.875 1.62868 5.81545 1.77146 5.70996 1.87695C5.60447 1.98244 5.46168 2.04199 5.3125 2.04199H1.375V13.292H12.625V9.35449C12.625 9.20531 12.6846 9.06252 12.79 8.95703C12.8955 8.85154 13.0383 8.79199 13.1875 8.79199C13.3367 8.79199 13.4795 8.85154 13.585 8.95703C13.6904 9.06252 13.75 9.20531 13.75 9.35449V13.8545C13.75 14.0037 13.6904 14.1465 13.585 14.252C13.4795 14.3574 13.3367 14.417 13.1875 14.417H0.8125C0.663316 14.417 0.520528 14.3574 0.415039 14.252C0.30955 14.1465 0.25 14.0037 0.25 13.8545V1.47949C0.25 1.33031 0.30955 1.18752 0.415039 1.08203C0.520528 0.976542 0.663316 0.916992 0.8125 0.916992H5.3125ZM13.1875 0.916992C13.3367 0.916992 13.4795 0.976542 13.585 1.08203C13.6904 1.18752 13.75 1.33031 13.75 1.47949V6.54199C13.75 6.69118 13.6904 6.83396 13.585 6.93945C13.4795 7.04494 13.3367 7.10449 13.1875 7.10449C13.0383 7.10449 12.8955 7.04494 12.79 6.93945C12.6846 6.83396 12.625 6.69118 12.625 6.54199V2.84082L7.39941 8.06641C7.34723 8.11902 7.28518 8.1609 7.2168 8.18945C7.14825 8.21801 7.07426 8.23242 7 8.23242C6.92574 8.23242 6.85175 8.21801 6.7832 8.18945C6.71482 8.1609 6.65277 8.11902 6.60059 8.06641C6.54797 8.01422 6.50609 7.95217 6.47754 7.88379C6.44898 7.81524 6.43457 7.74125 6.43457 7.66699C6.43457 7.59274 6.44898 7.51874 6.47754 7.4502C6.50609 7.38181 6.54797 7.31976 6.60059 7.26758L11.8262 2.04199H8.125C7.97582 2.04199 7.83303 1.98244 7.72754 1.87695C7.62205 1.77146 7.5625 1.62868 7.5625 1.47949C7.5625 1.33031 7.62205 1.18752 7.72754 1.08203C7.83303 0.976542 7.97582 0.916992 8.125 0.916992H13.1875Z" fill="#2C353A"/>
</svg>
