<svg width="32" height="32" viewBox="0 0 32 32" fill="none" xmlns="http://www.w3.org/2000/svg">
<path d="M24.0205 9C27.8691 9 31 12.1401 31 16C31 19.8599 27.8691 23 24.0205 23C20.6613 23 17.8232 21.2576 16 18.0859C14.1768 21.2576 11.3387 23 7.97949 23C4.13086 23 1 19.8599 1 16C1 12.1401 4.13086 9 7.97949 9C11.3387 9 14.1768 10.7424 16 13.9141C17.8232 10.7424 20.6613 9 24.0205 9ZM7.97949 11C5.23388 11 3 13.2432 3 16C3 18.7568 5.23389 21 7.97949 21C10.7022 21 12.918 19.5718 14.3887 16.8691L14.8613 16L14.3887 15.1309C12.918 12.4282 10.7022 11 7.97949 11ZM24.0205 11C21.2978 11 19.082 12.4282 17.6113 15.1309L17.1387 16L17.6113 16.8691C19.082 19.5718 21.2978 21 24.0205 21C26.7661 21 29 18.7568 29 16C29 13.2432 26.7661 11 24.0205 11ZM24.2529 15.2891H25.7812V16.75H24.2529V18.2881H22.793V16.75H21.2627V15.2891H22.793V13.751H24.2529V15.2891ZM10.6943 16.75H6.17383V15.2891H10.6943V16.75Z" fill="#008184"/>
</svg>
