<svg width="32" height="32" viewBox="0 0 32 32" fill="none" xmlns="http://www.w3.org/2000/svg">
<path d="M19.2812 12.25C19.6437 12.25 19.9375 12.5298 19.9375 12.875V22.875C19.9375 23.2202 19.6437 23.5 19.2812 23.5H8.78125C8.41881 23.5 8.125 23.2202 8.125 22.875V12.875C8.12501 12.5298 8.41882 12.25 8.78125 12.25H19.2812ZM23.0898 10.3838C23.2176 10.3594 23.3504 10.3714 23.4707 10.4189C23.5909 10.4665 23.6936 10.5471 23.7656 10.6504C23.8377 10.7538 23.8758 10.8759 23.875 11V20.375C23.8726 20.5404 23.8044 20.6986 23.6846 20.8184L22.3721 22.0684C22.3108 22.1262 22.2381 22.172 22.1582 22.2031C22.0782 22.2342 21.9926 22.2505 21.9062 22.25C21.7324 22.25 21.5654 22.1844 21.4424 22.0674C21.3193 21.9502 21.25 21.7908 21.25 21.625V12.25C21.2495 12.1677 21.2662 12.0859 21.2988 12.0098C21.3315 11.9338 21.3798 11.8649 21.4404 11.8066L22.7529 10.5566C22.8447 10.4685 22.962 10.4082 23.0898 10.3838ZM21.25 8.5C21.3795 8.50062 21.5059 8.53759 21.6133 8.60645C21.7207 8.6754 21.8043 8.77356 21.8535 8.8877C21.9037 9.00148 21.9181 9.12684 21.8936 9.24805C21.869 9.36922 21.8068 9.48049 21.7158 9.56836L20.4033 10.8184C20.2776 10.9326 20.1113 10.9977 19.9375 11H10.0938C9.96319 11.0006 9.83523 10.9644 9.72656 10.8955C9.61783 10.8265 9.53306 10.7274 9.4834 10.6123C9.43403 10.4979 9.42158 10.3722 9.44727 10.251C9.47297 10.1298 9.53586 10.0188 9.62793 9.93164L10.9404 8.68164C11.0017 8.62375 11.0744 8.57798 11.1543 8.54688C11.2343 8.51577 11.3199 8.49952 11.4062 8.5H21.25Z" fill="#C9D2D2"/>
<path d="M31.4071 22.1389C31.7131 22.3951 31.8766 22.6192 31.9759 23.0065C31.9948 23.2521 31.9942 23.4968 31.9933 23.7431C31.9934 23.8145 31.9935 23.8858 31.9937 23.9594C31.9937 24.1104 31.9935 24.2614 31.993 24.4124C31.9923 24.6408 31.9929 24.869 31.9938 25.0973C31.995 26.904 31.7263 28.5642 30.4699 29.9469C30.4169 30.0061 30.3638 30.0652 30.3091 30.1262C29.2309 31.2675 27.7369 31.9205 26.1696 31.9837C25.9763 31.9874 25.7831 31.9891 25.5897 31.9899C25.5191 31.9903 25.4485 31.9907 25.3758 31.9911C25.2274 31.9917 25.079 31.9921 24.9306 31.9924C24.7044 31.993 24.4783 31.995 24.2522 31.9971C24.1074 31.9975 23.9626 31.9979 23.8178 31.9981C23.7507 31.9989 23.6837 31.9997 23.6146 32.0006C23.13 31.9991 22.746 31.9479 22.3632 31.6247C22.0583 31.2588 21.9837 31.0101 21.9965 30.5369C22.0516 30.1361 22.2414 29.9031 22.5515 29.6563C22.8232 29.5118 23.0366 29.4804 23.3426 29.4782C23.4097 29.4776 23.4768 29.4769 23.546 29.4762C23.6183 29.4757 23.6906 29.4752 23.7651 29.4748C23.9191 29.4729 24.0731 29.471 24.2271 29.4691C24.4692 29.4664 24.7113 29.464 24.9533 29.4623C25.1875 29.4605 25.4216 29.4575 25.6557 29.4543C25.7271 29.4541 25.7984 29.4539 25.872 29.4536C26.8679 29.4379 27.7646 29.1012 28.4891 28.4069C29.0562 27.7828 29.4266 26.9791 29.4327 26.1293C29.4337 26.0276 29.4337 26.0276 29.4347 25.9239C29.4352 25.8514 29.4357 25.7788 29.4361 25.704C29.438 25.5493 29.4399 25.3946 29.4418 25.2399C29.4445 24.9968 29.4469 24.7537 29.4486 24.5106C29.4504 24.2755 29.4534 24.0404 29.4566 23.8052C29.4568 23.733 29.457 23.6609 29.4573 23.5865C29.4645 23.1298 29.4963 22.7236 29.7876 22.3502C30.2858 21.9474 30.8275 21.8327 31.4071 22.1389Z" fill="#C9D2D2"/>
<path d="M1.66083 22.0234C2.03258 22.164 2.25975 22.3925 2.44653 22.7437C2.51036 22.9459 2.52081 23.131 2.52234 23.3424C2.52301 23.4096 2.52368 23.4767 2.52437 23.5459C2.52485 23.6181 2.52533 23.6904 2.52582 23.7649C2.52766 23.9189 2.52954 24.073 2.53145 24.227C2.53414 24.469 2.53656 24.7111 2.53829 24.9532C2.54011 25.1873 2.54311 25.4214 2.54628 25.6555C2.5465 25.7269 2.54671 25.7983 2.54693 25.8718C2.56268 26.8677 2.89938 27.7644 3.59364 28.4889C4.21777 29.056 5.02145 29.4264 5.8713 29.4325C5.93906 29.4332 6.00682 29.4339 6.07663 29.4345C6.1855 29.4353 6.1855 29.4353 6.29656 29.436C6.45125 29.4378 6.60595 29.4397 6.76064 29.4416C7.00374 29.4443 7.24683 29.4467 7.48994 29.4485C7.72509 29.4503 7.96021 29.4533 8.19535 29.4565C8.26753 29.4567 8.3397 29.4569 8.41407 29.4571C8.87074 29.4643 9.27695 29.4962 9.65039 29.7874C9.93185 30.1356 10.0633 30.4437 10.0335 30.8995C9.98088 31.2594 9.82106 31.4818 9.55883 31.7302C9.14479 32.0062 8.73821 31.995 8.2575 31.9931C8.18611 31.9932 8.11472 31.9934 8.04117 31.9935C7.89016 31.9936 7.73915 31.9934 7.58813 31.9928C7.35982 31.9921 7.13154 31.9928 6.90323 31.9936C5.09658 31.9949 3.43633 31.7261 2.05368 30.4698C1.99451 30.4167 1.93535 30.3636 1.87439 30.3089C0.733115 29.2308 0.0800649 27.7367 0.0168625 26.1695C0.0132025 25.9761 0.0114382 25.7829 0.0106342 25.5896C0.010261 25.519 0.00988777 25.4484 0.00950325 25.3756C0.00888805 25.2272 0.00845811 25.0788 0.00820444 24.9304C0.00756628 24.7043 0.00553052 24.4782 0.0034728 24.252C0.00304541 24.1072 0.00270156 23.9624 0.00244974 23.8176C0.00164133 23.7506 0.000832913 23.6835 0 23.6144C0.0014971 23.1298 0.0526828 22.7458 0.375866 22.3631C0.794625 22.0141 1.12207 21.9494 1.66083 22.0234Z" fill="#C9D2D2"/>
<path d="M23.7426 0.00642522C23.814 0.00629994 23.8853 0.00617465 23.9589 0.00604557C24.1099 0.0059566 24.2609 0.00619725 24.4119 0.00674493C24.6402 0.00744033 24.8685 0.00675391 25.0968 0.00591369C26.9035 0.00466646 28.5637 0.273414 29.9464 1.52976C30.0055 1.58285 30.0647 1.63594 30.1257 1.69063C31.2669 2.76877 31.92 4.26285 31.9832 5.83008C31.9869 6.0234 31.9886 6.21664 31.9894 6.41C31.9898 6.48059 31.9902 6.55118 31.9906 6.6239C31.9912 6.77231 31.9916 6.92071 31.9919 7.06912C31.9925 7.29527 31.9945 7.52138 31.9966 7.74752C31.997 7.89232 31.9974 8.03713 31.9976 8.18193C31.9984 8.24899 31.9992 8.31605 32.0001 8.38514C31.9986 8.86916 31.9455 9.25061 31.6283 9.63647C31.2708 9.92748 30.9823 10.0203 30.5242 10.0078C30.1376 9.94153 29.8528 9.71825 29.619 9.41139C29.5111 9.15513 29.4797 8.93487 29.4777 8.65713C29.4771 8.59 29.4764 8.52286 29.4757 8.4537C29.4752 8.3814 29.4747 8.30911 29.4742 8.23462C29.4724 8.08061 29.4705 7.9266 29.4686 7.77258C29.4659 7.53051 29.4635 7.28844 29.4618 7.04636C29.46 6.81222 29.4569 6.57813 29.4538 6.34401C29.4536 6.27264 29.4534 6.20128 29.4531 6.12775C29.4374 5.13182 29.1007 4.23515 28.4064 3.51065C27.7823 2.94353 26.9786 2.57313 26.1288 2.56704C26.061 2.56637 25.9932 2.5657 25.9234 2.56501C25.8146 2.56429 25.8146 2.56429 25.7035 2.56356C25.5488 2.56172 25.3941 2.55984 25.2394 2.55793C24.9963 2.55523 24.7532 2.55281 24.5101 2.55109C24.275 2.54928 24.0399 2.54627 23.8047 2.5431C23.7325 2.54288 23.6604 2.54267 23.586 2.54245C23.1293 2.53521 22.7231 2.5034 22.3497 2.21214C22.0682 1.86398 21.9368 1.55583 21.9665 1.10007C22.0192 0.740129 22.179 0.517776 22.4412 0.269351C22.8553 -0.00667839 23.2618 0.00455514 23.7426 0.00642522Z" fill="#C9D2D2"/>
<path d="M6.41 0.0106342C6.51588 0.0100744 6.51588 0.0100744 6.6239 0.00950325C6.77231 0.00888805 6.92071 0.00845811 7.06912 0.00820444C7.29527 0.00756628 7.52138 0.00553052 7.74752 0.0034728C7.89232 0.00304541 8.03713 0.00270156 8.18193 0.00244974C8.28252 0.00123712 8.28252 0.00123712 8.38514 0C8.86916 0.00149539 9.25061 0.0545184 9.63647 0.371774C9.92748 0.729308 10.0203 1.01774 10.0078 1.47591C9.94153 1.86249 9.71825 2.14727 9.41139 2.38106C9.1555 2.4888 8.93551 2.52033 8.65817 2.52234C8.55779 2.52334 8.55779 2.52334 8.45538 2.52437C8.34724 2.52509 8.34724 2.52509 8.23692 2.52582C8.08321 2.52766 7.92949 2.52954 7.77578 2.53145C7.53429 2.53414 7.2928 2.53655 7.0513 2.53829C6.81765 2.54011 6.58404 2.54312 6.3504 2.54628C6.27938 2.5465 6.20835 2.54671 6.13516 2.54693C5.1045 2.56323 4.26403 2.88191 3.51295 3.59364C2.94164 4.21272 2.57312 5.02339 2.56704 5.8713C2.56603 5.97294 2.56603 5.97294 2.56501 6.07663C2.56453 6.14921 2.56405 6.22178 2.56356 6.29656C2.56172 6.45125 2.55984 6.60595 2.55793 6.76064C2.55523 7.00374 2.55281 7.24683 2.55109 7.48994C2.54928 7.72509 2.54627 7.96021 2.5431 8.19535C2.54288 8.26753 2.54267 8.3397 2.54245 8.41407C2.53521 8.87074 2.5034 9.27695 2.21214 9.65039C1.86398 9.93185 1.55583 10.0633 1.10007 10.0335C0.740129 9.98088 0.517776 9.82106 0.269351 9.55883C-0.00667839 9.14479 0.00455514 8.73821 0.00642522 8.2575C0.00629994 8.18611 0.00617465 8.11472 0.00604557 8.04117C0.0059566 7.89016 0.00619725 7.73915 0.00674493 7.58813C0.00744033 7.35982 0.00675391 7.13154 0.00591369 6.90323C0.00466646 5.09658 0.273414 3.43633 1.52976 2.05368C1.58285 1.99451 1.63594 1.93535 1.69063 1.87439C2.94582 0.545695 4.6146 0.0180991 6.41 0.0106342Z" fill="#C9D2D2"/>
</svg>
