<svg width="52" height="52" viewBox="0 0 52 52" fill="none" xmlns="http://www.w3.org/2000/svg">
<rect width="52" height="52" rx="8" fill="#008184" fill-opacity="0.2"/>
<path d="M34.0005 11.002C34.2653 11.0028 34.5193 11.1086 34.7065 11.2959C34.8938 11.4832 34.9997 11.7371 35.0005 12.002V40.002C34.9997 40.2668 34.8938 40.5207 34.7065 40.708C34.5193 40.8953 34.2653 41.0011 34.0005 41.002H18.0005C17.7355 41.0012 17.4808 40.8954 17.2935 40.708C17.1063 40.5207 17.0013 40.2668 17.0005 40.002V12.002C17.0013 11.7371 17.1063 11.4832 17.2935 11.2959C17.4808 11.1085 17.7355 11.0027 18.0005 11.002H34.0005ZM19.0005 39.002H33.0005V35.002H19.0005V39.002ZM27.0005 36.002C27.2653 36.0028 27.5193 36.1086 27.7065 36.2959C27.8938 36.4832 27.9997 36.7371 28.0005 37.002C27.9997 37.2668 27.8938 37.5207 27.7065 37.708C27.5193 37.8953 27.2653 38.0011 27.0005 38.002H25.0005C24.7353 38.002 24.481 37.8964 24.2935 37.709C24.1059 37.5214 24.0005 37.2672 24.0005 37.002C24.0005 36.7368 24.1059 36.4824 24.2935 36.2949C24.481 36.1075 24.7354 36.002 25.0005 36.002H27.0005ZM19.0005 33.002H33.0005V17.002H19.0005V33.002ZM27.9966 21.0127C28.2587 21.015 28.5094 21.1203 28.6948 21.3057C28.8802 21.491 28.9855 21.7418 28.9878 22.0039C28.9901 22.2659 28.8894 22.5185 28.7075 22.707L23.7075 27.707C23.6149 27.8 23.5045 27.8745 23.3833 27.9248C23.2621 27.975 23.1317 28.0011 23.0005 28.001C22.8028 28.0009 22.6092 27.9418 22.4448 27.832C22.2804 27.7221 22.1523 27.5655 22.0767 27.3828C22.0011 27.2003 21.9806 26.9995 22.019 26.8057C22.0576 26.6117 22.1537 26.4338 22.2935 26.2939L27.2935 21.2939C27.4821 21.1118 27.7344 21.0104 27.9966 21.0127ZM23.9966 19.0127C24.2587 19.015 24.5094 19.1203 24.6948 19.3057C24.8802 19.491 24.9855 19.7418 24.9878 20.0039C24.9901 20.2659 24.8894 20.5185 24.7075 20.707L22.7075 22.707C22.6149 22.8 22.5045 22.8745 22.3833 22.9248C22.2621 22.975 22.1317 23.0011 22.0005 23.001C21.8028 23.0009 21.6092 22.9418 21.4448 22.832C21.2804 22.7221 21.1523 22.5655 21.0767 22.3828C21.0011 22.2003 20.9806 21.9995 21.019 21.8057C21.0576 21.6117 21.1537 21.4338 21.2935 21.2939L23.2935 19.2939C23.4821 19.1118 23.7344 19.0104 23.9966 19.0127ZM19.0005 15.002H33.0005V13.002H19.0005V15.002Z" fill="#008184"/>
</svg>
