<svg xmlns="http://www.w3.org/2000/svg" width="26" height="26" viewBox="0 0 26 26" fill="none">
<path d="M9 18C9.55273 18 10 18.4478 10 19C10 20.02 10.166 20.4927 10.3057 20.709C10.3955 20.8496 10.5313 20.999 10.999 20.999H11C11.5518 20.999 12 21.4468 12 21.999C12 22.5513 11.5527 22.999 11 22.999C10.5781 22.999 10 23 10 25C10 25.5522 9.55273 26 9 26C8.44727 26 8 25.5522 8 25C8 23 7.42188 22.999 7 22.999C6.44727 22.999 6 22.5513 6 21.999C6 21.4473 6.44824 20.999 7 20.999H7.00098C7.46874 20.999 7.6045 20.8496 7.69434 20.709C7.83399 20.4927 8 20.02 8 19C8 18.4478 8.44727 18 9 18ZM18 0C18.5527 0 19 0.44775 19 1C19 6.96191 21.7481 11.999 25 11.999C25.5527 11.999 26 12.4468 26 12.999C26 13.5513 25.5527 13.999 25 13.999C21.7481 13.999 19 19.0366 19 25C19 25.5522 18.5527 26 18 26C17.4473 26 17 25.5522 17 25C17 19.0366 14.252 13.999 11 13.999C10.4473 13.999 10 13.5513 10 12.999C10 12.4468 10.4473 11.999 11 11.999C14.252 11.999 17 6.96191 17 1C17 0.44775 17.4473 0 18 0ZM18 7.3877C17.1436 9.90528 15.7871 11.8853 14.1338 12.999C15.7871 14.1133 17.1436 16.0937 18 18.6113C18.8564 16.0937 20.2129 14.1133 21.8662 12.999C20.2129 11.8853 18.8564 9.90528 18 7.3877ZM4 0C4.55005 0 5 0.45001 5 1C5 2.51001 5.19043 3.59998 5.56055 4.25C5.87048 4.76981 6.30015 5 7 5C7.55005 5 8 5.45001 8 6C8 6.54999 7.55005 7 7 7C6.30005 7 5 7 5 11C5 11.55 4.55005 12 4 12C3.44995 12 3 11.55 3 11C3 7 1.69995 7 1 7C0.44995 7 0 6.54999 0 6C0 5.45001 0.44995 5 1 5C1.69985 5 2.12952 4.76981 2.43945 4.25C2.80957 3.59998 3 2.51001 3 1C3 0.45001 3.44995 0 4 0Z" fill="#C9D2D2"/>
</svg> 